<svg xmlns="http://www.w3.org/2000/svg" viewBox="0 0 256 256">
  <defs>
    <radialGradient id="bg" cx="0.32" cy="0.18" r="1.2">
      <stop offset="0" stop-color="#0f2233"/>
      <stop offset="1" stop-color="#0a0f1f"/>
    </radialGradient>
    <linearGradient id="brain" x1="0" y1="0" x2="0" y2="1">
      <stop offset="0" stop-color="#7be9ff"/>
      <stop offset="1" stop-color="#00b8d9"/>
    </linearGradient>
    <filter id="glow" x="-40%" y="-40%" width="180%" height="180%">
      <feGaussianBlur stdDeviation="4" result="b"/>
      <feMerge><feMergeNode in="b"/><feMergeNode in="SourceGraphic"/></feMerge>
    </filter>
  </defs>
  <rect width="256" height="256" rx="52" fill="url(#bg)" stroke="#24304f"/>
  <circle cx="128" cy="122" r="70" fill="#00e5ff" opacity="0.1"/>
  <circle cx="128" cy="46" r="7" fill="#00e5ff" filter="url(#glow)"/>
  <circle cx="128" cy="46" r="14" fill="none" stroke="#00e5ff" stroke-width="2" opacity="0.35"/>
  <path d="M 96 60 C 56 60 44 94 56 124 C 64 144 78 152 86 150 C 88 168 102 184 120 190 C 112 176 116 162 128 160 C 140 162 144 176 136 190 C 154 184 168 168 170 150 C 178 152 192 144 200 124 C 212 94 200 60 160 60 C 144 60 134 68 128 76 C 122 68 112 60 96 60 Z"
        fill="url(#brain)" filter="url(#glow)"/>
  <g stroke="#eafcff" stroke-width="4" stroke-linecap="round" fill="none" opacity="0.85">
    <path d="M 64 104 Q 74 96 84 102"/>
    <path d="M 70 124 Q 80 118 90 124"/>
    <path d="M 68 144 Q 78 138 88 144"/>
    <path d="M 192 104 Q 182 96 172 102"/>
    <path d="M 186 124 Q 176 118 166 124"/>
    <path d="M 188 144 Q 178 138 168 144"/>
  </g>
  <g fill="#eafcff">
    <circle cx="150" cy="86" r="4"/>
    <circle cx="163" cy="94" r="2.5"/>
  </g>
</svg>
