<svg xmlns="http://www.w3.org/2000/svg" viewBox="0 0 256 256">
  <defs>
    <radialGradient id="bg" cx="0.32" cy="0.18" r="1.2">
      <stop offset="0" stop-color="#122a1c"/>
      <stop offset="1" stop-color="#0a0f1f"/>
    </radialGradient>
    <linearGradient id="mole" x1="0" y1="0" x2="0" y2="1">
      <stop offset="0" stop-color="#a5714a"/>
      <stop offset="1" stop-color="#7c4a2b"/>
    </linearGradient>
    <filter id="glow" x="-40%" y="-40%" width="180%" height="180%">
      <feGaussianBlur stdDeviation="3.5" result="b"/>
      <feMerge><feMergeNode in="b"/><feMergeNode in="SourceGraphic"/></feMerge>
    </filter>
  </defs>
  <rect width="256" height="256" rx="52" fill="url(#bg)" stroke="#24304f"/>
  <circle cx="128" cy="128" r="76" fill="#4ade80" opacity="0.1"/>
  <g fill="#4ade80" opacity="0.85">
    <path d="M 34 200 Q 38 180 44 200 Z"/>
    <path d="M 62 206 Q 68 184 76 206 Z"/>
    <path d="M 186 202 Q 192 180 198 202 Z"/>
    <path d="M 212 206 Q 218 186 224 206 Z"/>
  </g>
  <ellipse cx="128" cy="178" rx="60" ry="25" fill="#0a0f1f" stroke="#24304f" stroke-width="2"/>
  <ellipse cx="128" cy="183" rx="46" ry="16" fill="#04060b"/>
  <ellipse cx="128" cy="142" rx="42" ry="46" fill="url(#mole)" filter="url(#glow)"/>
  <ellipse cx="128" cy="128" rx="30" ry="24" fill="#b07c50" opacity="0.8"/>
  <circle cx="112" cy="122" r="5" fill="#1a0e05"/>
  <circle cx="144" cy="122" r="5" fill="#1a0e05"/>
  <circle cx="128" cy="140" r="8" fill="#e8a0c0"/>
  <circle cx="128" cy="138" r="3" fill="#8a4a5e"/>
  <g fill="#ffffff">
    <rect x="121" y="146" width="6" height="7" rx="2"/>
    <rect x="129" y="146" width="6" height="7" rx="2"/>
  </g>
  <g stroke="#2a1a0d" stroke-width="2" stroke-linecap="round" opacity="0.5">
    <path d="M 102 134 L 90 130"/>
    <path d="M 102 140 L 88 140"/>
    <path d="M 154 134 L 166 130"/>
    <path d="M 154 140 L 168 140"/>
  </g>
  <path d="M 196 58 l 5 12 l 12 5 l -12 5 l -5 12 l -5 -12 l -12 -5 l 12 -5 Z" fill="#ffffff" filter="url(#glow)"/>
</svg>
