<svg xmlns="http://www.w3.org/2000/svg" viewBox="0 0 640 360">
  <defs>
    <linearGradient id="sky" x1="0" y1="0" x2="1" y2="1">
      <stop offset="0" stop-color="#3d2b08"/>
      <stop offset="0.5" stop-color="#3d1a30"/>
      <stop offset="1" stop-color="#0a1f3d"/>
    </linearGradient>
    <radialGradient id="glow" cx="0.5" cy="0.5" r="0.5">
      <stop offset="0" stop-color="#f0c040" stop-opacity="0.3"/>
      <stop offset="1" stop-color="#f0c040" stop-opacity="0"/>
    </radialGradient>
    <filter id="soft" x="-60%" y="-60%" width="220%" height="220%">
      <feGaussianBlur stdDeviation="10"/>
    </filter>
  </defs>

  <rect width="640" height="360" fill="url(#sky)"/>
  <circle cx="320" cy="170" r="230" fill="url(#glow)" filter="url(#soft)"/>

  <g transform="translate(170 44) rotate(-3)">
    <g>
      <g>
        <rect x="0" y="0" width="56" height="56" fill="#f1e0b9"/>
        <rect x="56" y="0" width="56" height="56" fill="#6b4f34"/>
        <rect x="112" y="0" width="56" height="56" fill="#f1e0b9"/>
        <rect x="168" y="0" width="56" height="56" fill="#6b4f34"/>
        <rect x="224" y="0" width="56" height="56" fill="#f1e0b9"/>
        <rect x="280" y="0" width="56" height="56" fill="#6b4f34"/>
      </g>
      <g>
        <rect x="0" y="56" width="56" height="56" fill="#6b4f34"/>
        <rect x="56" y="56" width="56" height="56" fill="#f1e0b9"/>
        <rect x="112" y="56" width="56" height="56" fill="#6b4f34"/>
        <rect x="168" y="56" width="56" height="56" fill="#f1e0b9"/>
        <rect x="224" y="56" width="56" height="56" fill="#6b4f34"/>
        <rect x="280" y="56" width="56" height="56" fill="#f1e0b9"/>
      </g>
      <g>
        <rect x="0" y="112" width="56" height="56" fill="#f1e0b9"/>
        <rect x="56" y="112" width="56" height="56" fill="#6b4f34"/>
        <rect x="112" y="112" width="56" height="56" fill="#f1e0b9"/>
        <rect x="168" y="112" width="56" height="56" fill="#6b4f34"/>
        <rect x="224" y="112" width="56" height="56" fill="#f1e0b9"/>
        <rect x="280" y="112" width="56" height="56" fill="#6b4f34"/>
      </g>
      <g>
        <rect x="0" y="168" width="56" height="56" fill="#6b4f34"/>
        <rect x="56" y="168" width="56" height="56" fill="#f1e0b9"/>
        <rect x="112" y="168" width="56" height="56" fill="#6b4f34"/>
        <rect x="168" y="168" width="56" height="56" fill="#f1e0b9"/>
        <rect x="224" y="168" width="56" height="56" fill="#6b4f34"/>
        <rect x="280" y="168" width="56" height="56" fill="#f1e0b9"/>
      </g>
      <g>
        <rect x="0" y="224" width="56" height="56" fill="#f1e0b9"/>
        <rect x="56" y="224" width="56" height="56" fill="#6b4f34"/>
        <rect x="112" y="224" width="56" height="56" fill="#f1e0b9"/>
        <rect x="168" y="224" width="56" height="56" fill="#6b4f34"/>
        <rect x="224" y="224" width="56" height="56" fill="#f1e0b9"/>
        <rect x="280" y="224" width="56" height="56" fill="#6b4f34"/>
      </g>
      <g>
        <rect x="0" y="280" width="56" height="56" fill="#6b4f34"/>
        <rect x="56" y="280" width="56" height="56" fill="#f1e0b9"/>
        <rect x="112" y="280" width="56" height="56" fill="#6b4f34"/>
        <rect x="168" y="280" width="56" height="56" fill="#f1e0b9"/>
        <rect x="224" y="280" width="56" height="56" fill="#6b4f34"/>
        <rect x="280" y="280" width="56" height="56" fill="#f1e0b9"/>
      </g>
    </g>
    <rect x="0" y="0" width="336" height="336" fill="none" stroke="#f0c040" stroke-opacity="0.6" stroke-width="4"/>

    <g stroke="#3a2a18" stroke-width="6" stroke-linecap="round">
      <path d="M 28 336 L 28 296 C 28 282 40 278 40 268 L 40 262" fill="none"/>
      <circle cx="40" cy="252" r="12" fill="#3a2a18"/>
      <path d="M 84 336 L 84 300 C 84 286 94 282 94 272 L 94 266" fill="none"/>
      <circle cx="94" cy="256" r="11" fill="#3a2a18"/>
      <path d="M 140 336 L 140 298 C 140 284 150 280 150 270 L 150 264" fill="none"/>
      <circle cx="150" cy="254" r="12" fill="#3a2a18"/>
    </g>
    <g stroke="#e8e2d0" stroke-width="6" stroke-linecap="round">
      <path d="M 196 336 L 196 300 C 196 286 206 282 206 272 L 206 266" fill="none"/>
      <circle cx="206" cy="256" r="11" fill="#e8e2d0"/>
      <path d="M 252 336 L 252 296 C 252 282 264 278 264 268 L 264 262" fill="none"/>
      <circle cx="264" cy="252" r="12" fill="#e8e2d0"/>
      <path d="M 308 336 L 308 298 C 308 284 318 280 318 270 L 318 264" fill="none"/>
      <circle cx="318" cy="254" r="11" fill="#e8e2d0"/>
    </g>

    <g>
      <path d="M 40 236 C 36 226 36 216 40 208 L 44 200 L 48 208 C 50 216 48 226 44 236" fill="#3a2a18"/>
      <path d="M 40 196 L 34 180 L 40 186 L 46 180 Z" fill="#3a2a18"/>
      <rect x="36" y="192" width="8" height="10" fill="#3a2a18"/>
      <path d="M 94 240 C 90 230 90 220 94 212 L 98 204 L 102 212 C 104 220 102 230 98 240" fill="#3a2a18"/>
      <path d="M 94 200 L 88 184 L 94 190 L 100 184 Z" fill="#3a2a18"/>
      <rect x="90" y="196" width="8" height="10" fill="#3a2a18"/>
      <path d="M 150 238 C 146 228 146 218 150 210 L 154 202 L 158 210 C 160 218 158 228 154 238" fill="#3a2a18"/>
      <path d="M 150 198 L 144 182 L 150 188 L 156 182 Z" fill="#3a2a18"/>
      <rect x="146" y="194" width="8" height="10" fill="#3a2a18"/>
    </g>
    <g>
      <path d="M 206 242 C 202 232 202 222 206 214 L 210 206 L 214 214 C 216 222 214 232 210 242" fill="#e8e2d0"/>
      <path d="M 206 202 L 200 186 L 206 192 L 212 186 Z" fill="#e8e2d0"/>
      <rect x="202" y="198" width="8" height="10" fill="#e8e2d0"/>
      <path d="M 264 238 C 260 228 260 218 264 210 L 268 202 L 272 210 C 274 218 272 228 268 238" fill="#e8e2d0"/>
      <path d="M 264 198 L 258 182 L 264 188 L 270 182 Z" fill="#e8e2d0"/>
      <rect x="260" y="194" width="8" height="10" fill="#e8e2d0"/>
      <path d="M 318 240 C 314 230 314 220 318 212 L 322 204 L 326 212 C 328 220 326 230 322 240" fill="#e8e2d0"/>
      <path d="M 318 200 L 312 184 L 318 190 L 324 184 Z" fill="#e8e2d0"/>
      <rect x="314" y="196" width="8" height="10" fill="#e8e2d0"/>
    </g>
  </g>

  <g font-family="Arial, sans-serif">
    <text x="560" y="120" text-anchor="middle" font-size="30" fill="#ffdf80">♞</text>
    <text x="560" y="220" text-anchor="middle" font-size="34" fill="#ffdf80">♛</text>
  </g>

  <g fill="#ffffff" opacity="0.55">
    <circle cx="70" cy="70" r="2.5"/><circle cx="590" cy="60" r="2.5"/>
    <circle cx="110" cy="330" r="2"/><circle cx="60" cy="290" r="2"/>
  </g>

  <rect x="0" y="0" width="640" height="360" fill="none" stroke="#f0c040" stroke-opacity="0.35" stroke-width="2" rx="18"/>
</svg>
